<svg xmlns="http://www.w3.org/2000/svg" version="1.0" viewBox="-1.4 0 499 464.4" style="fill:#000" aria-label="Stylized Transparent Businesspeople Holding a Presentation"><defs><clipPath id="a"><path d="M333 401h140v57.589844H333Zm0 0"/></clipPath><clipPath id="b"><path d="M315 172h180.191406v237H315Zm0 0"/></clipPath></defs><path d="M342.730469 238.832031c-5.03125 0-10.09375-5.230469-10.359375-5.511719l.722656-.6875c.078125.078126 7.679688 7.929688 12.878906 4.152344l.585938.808594c-1.214844.886719-2.523438 1.238281-3.828125 1.238281Zm9.609375 4.160157c0-.042969.003906-.085938.003906-.128907-.011719-.207031-.03125-.429687-.050781-.648437-.5625-5.929688-4.320313-16.089844-4.320313-16.089844l-1.441406.632812c-1.667969-2.210937-3.714844-4.152343-6.222656-5.738281l-59.40625 8.167969s-21.785156 27.578125 1.660156 73.875h19.96875c-.5-14.183594.945312-24.609375 3.210938-32.269531l-12.976563-16.785157.789063-.613281 12.546874 16.226563c2.097657-6.585938 4.808594-11.003906 7.339844-13.9375 6.046875-7.015625 12.28125-7.386719 12.546875-7.398438l.046875 1c-.242187.011719-24.332031 1.839844-22.503906 53.757813l-.503906.019531h35.578125s16.480469-34.554688 13.734375-60.070312" style="fill:#000"/><path d="m66.03125 381.871094-28.144531 28.9375v14.296875h113.199219s-5.734376 10.976562-27.4375 20.933593c-21.703126 9.957032-72.765626 18.386719-95.40625 1.277344-22.636719-17.105468 3.492187-87.828125 3.492187-87.828125l34.296875 22.382813" style="fill:#fbbe28"/><g clip-path="url(#a)"><path d="M460.984375 401.335938s10.578125 30.011718 11.34375 53.699218c0 0-76.679687 12.453125-114.636719-9.25-27.277344-15.597656-24.339844-20.679687-24.339844-20.679687h120.707032v-13.277344l-10.519532-10.554687s11.800782 1.464843 17.445313.0625" style="fill:#000"/></g><path d="M38.386719 424.605469h415.171875v-12.570313l-108.125-108.472656H142.78125L38.386719 411.011719Zm416.171875 1H37.386719v-15.003907l.140625-.144531L142.355469 302.5625h203.496093l.144532.148438 108.5625 108.910156v13.984375" style="fill:#000"/><path d="m272.753906 323.339844-34.355468 56.613281-69.089844-4.0625 41.339844-54.691406 62.105468 2.140625" style="fill:#fff"/><path d="m170.269531 375.445312 67.859375 3.992188 33.757813-55.625-60.996094-2.105469Zm68.398438 5.027344-70.320313-4.136718L210.40625 320.6875l63.21875 2.183594-.441406.730468-34.515625 56.871094" style="fill:#000"/><path d="m194.371094 310.625 52.71875-.5625-37.296875 56.609375-62.058594-3.050781L194.371094 310.625" style="fill:#fff"/><path d="m148.796875 363.175781 60.734375 2.980469 36.625-55.585938-51.554688.554688Zm61.257813 4.011719-.285157-.015625-63.09375-3.101563 47.46875-53.941406.222657-.003906 53.65625-.570312-37.96875 57.632812" style="fill:#000"/><path d="m290.691406 317.152344-36.773437 56.738281-69.21875-2.472656 45.871093-54.433594 60.121094.167969" style="fill:#fff"/><path d="m185.746094 370.953125 67.90625 2.429687 36.121094-55.734374-58.972657-.164063Zm68.4375 3.449219-.285156-.011719-70.242188-2.511719 46.683594-55.398437.230468.003906 61.039063.171875-37.425781 57.746094" style="fill:#000"/><path d="M124.9375 204.84375s2.757812 19.023438-4.828125 22.867188c-2.570313 1.296874-5.300781 2.097656-7.800781 2.570312-2.769532-15.445312-4.355469-30.308594.3125-41.679688 1.144531-2.789062 1.980468-5.417968 2.558594-7.90625 3.449218-2.304687 5.582031-4.703124 6.703124-7.027343.195313.785156.371094 1.621093.496094 2.511719 1.96875 13.695312-1.085937 18.917968 7.085938 21.382812 0 0-.394532 1.863281-4.527344 7.28125" style="fill:#f4caac"/><path d="M125.328125 215.511719c-2.171875 1.003906-9.457031-1.496094-9.457031-1.496094 4.042968 0 8.871094-5.324219 10.152344-5.226563 1.28125.101563-.597657 3.253907-.597657 3.253907s2.074219 2.464843-.097656 3.46875" style="fill:#fbbe28"/><path d="m121.167969 196.605469-5.867188-2.382813 5.867188-6.894531c1.03125.964844 0 9.277344 0 9.277344" style="fill:#fff"/><path d="M175.503906 311.65625c-.03125 2.460938-6.257812 17.417969-14.59375 22.183594-8.339844 4.765625-16.152344.960937-16.152344.960937s-.011718-1.960937.675782-4.863281c-1.84375-10.089844 7.070312-16.523438 9.574218-17.605469 1.335938-.578125 1.484376.207031 1.304688 1.121094.105469-.078125.207031-.160156.3125-.238281 15.121094-10.902344 11.257812-5.371094 11.257812-5.371094s2.527344-1.6875 3.640626-1.320312c1.109374.371093.160156 2.050781.160156 2.050781s1.050781-1.210938 2.734375-.84375c1.679687.367187-3.191407 6.332031-3.191407 6.332031s4.316407-5.039062 4.277344-2.40625" style="fill:#f4caac"/><path d="m163.078125 331.695312.640625.769532c.070312-.058594 7.035156-5.945313 10.796875-15.972656l-.9375-.351563c-3.664063 9.769531-10.433594 15.5-10.5 15.554687Zm11.828125-21.28125c-1.476562 0-6.621094 5.417969-8.761719 7.746094l.734375.679688c3.234375-3.515625 7.222656-7.355469 8.027344-7.425782l.003906-1h-.003906Zm-3.613281-2.152343c.363281-.492188.582031-1.074219.507812-1.207031 0 0-.113281-.109376-.617187-.0625-4.460938.425781-12.476563 10.410156-12.554688 10.511718l-.78125-.621094c.269532-.34375 5.53125-6.894531 10.121094-9.667968-1.667969.09375-6.605469 3.359375-9.050781 4.988281-3.449219 2.292969-7.90625 8.96875-7.949219 9.035156l-.832031-.550781c.148437-.230469 3.070312-4.601562 6.09375-7.539062l-.097657-.019532c.019532-.113281.011719-.351562-.078124-.40625-.019532-.011718-.527344-.304687-2.628907 1.113282-3.734375 2.511718-7.894531 7.222656-7.351562 12.230468l-.996094.109375c-.589844-5.453125 3.824219-10.503906 7.785156-13.171875 1.832031-1.234375 3.023438-1.589844 3.742188-1.117187.210937.136719.328125.332031.410156.535156.453125-.402344.90625-.757813 1.347656-1.050781 5.433594-3.613282 8.660157-5.496094 10.132813-5.109375l-.199219.761719c.984375-.558594 1.9375-.945313 2.792969-1.027344.796875-.070313 1.328125.117187 1.582031.570312.167969.296875.164063.636719.085937.96875.59375-.21875 1.164063-.332031 1.6875-.304687l-.054687 1c-.042969-.003907-.082031-.003907-.125-.003907-3.070313 0-8.621094 6.105469-10.527344 8.492188l-.78125-.625c.226563-.285156 4.480469-5.566406 8.335938-7.832031M124.167969 188.976562s-1.582031-1.746093-2.996094-1.828124c-1.414063-.085938-5.871094 7.074218-5.871094 7.074218l4.847657-4.277344.5 6.453126.523437.421874s1.105469-6.492187.503906-8Zm-8.164063-6.199218c-1.136718.789062-1.972656 4.042968-1.921875 4.667968.046875.628907 7.144531-3.582031 7.96875-3.730468.824219-.148438.230469-3.351563.230469-3.351563-1.09375-1.046875-5.144531 1.628907-6.277344 2.414063Zm6.269532 43.617187c4.03125-4.476562 3.574218-10.664062 3.554687-10.925781l-1 .082031c.007813.058594.449219 6.015625-3.296875 10.171875-2.339844 2.59375-5.8125 3.960938-10.324219 4.058594l.019531 1c4.800782-.105469 8.515626-1.582031 11.046876-4.386719Zm7.636718-28.597656.359375-.691406-.777343-.042969c-1.246094-.066406-3.378907-1.820312-4.09375-2.488281l-.683594.730469c.253906.238281 2.265625 2.082031 3.992187 2.617187-.753906 1.382813-2.691406 4.855469-4.152343 6.601563l.769531.640624c1.910156-2.285156 4.476562-7.160156 4.585937-7.367187ZM125.75 201.882812l-.648438-.761718-2.515624 2.140625.648437.761719Zm-7.113281 12.855469c-.863281 0-1.808594-.066406-2.839844-.230469l.152344-.988281c6.351562 1 9.085937-1.789062 9.113281-1.820312l.730469.6875c-.105469.109375-2.265625 2.351562-7.15625 2.351562" style="fill:#000"/><path d="M131.234375 382.210938c-19.585937-4.765626-24.605469-42.808594-24.605469-42.808594l-43.085937 44.234375s-27.46875-.746094-35.300781-9.597657c0 0-26.210938 2.726563-27.914063-25.191406-1.699219-27.914062 3.746094-86.808594 3.746094-86.808594s23.320312-17.191406 49.191406-18.722656c2.230469-.132812 4.277344-.25 6.171875-.351562l-11.875 20.777344 12.046875 57.425781s25.035156 9.925781 50.996094-20.785157l-3.492188-54.8125c14.941407 2.125 31.03125 4.800782 32.109375 6.597657 2.042969 3.402343 8.851563 77.277343 8.851563 77.277343s6.46875-4.765624 14.296875 0c7.832031 4.765626-11.550782 57.53125-31.136719 52.765626" style="fill:#6482f4"/><path d="m103.445312 186.011719-.613281-.792969c.117188-.089844 11.902344-9.34375 11.34375-17.070312-.144531-1.964844-1.09375-3.683594-2.832031-5.136719.402344.964843.703125 2.230469.5625 3.75-.347656 3.726562-3.203125 7.453125-8.484375 11.070312l-.566406-.824219c5.027343-3.445312 7.734375-6.921874 8.054687-10.339843.292969-3.117188-1.589844-5.042969-1.605468-5.0625l-2.59375-2.601563 3.191406 1.816406c3.285156 1.863282 5.058594 4.304688 5.269531 7.257813.597656 8.257813-11.222656 17.539063-11.726563 17.933594Zm-2.058593-33.195313c6.046875 1.074219 8.226562 4.09375 8.949219 5.574219-2.34375-2.335937-5.355469-4.191406-8.949219-5.574219Zm20.496093 20.851563c.699219-1.441407 1.007813-2.855469 1.019532-4.195313.765625 1.175782 1.207031 2.390625 1.132812 3.601563-.164062 2.601562-2.777344 4.898437-7.753906 6.84375 2.804688-2.0625 4.605469-4.183594 5.601562-6.25Zm-3.449218 92.253906c-1.164063-11.332031-3.992188-23.660156-6.125-35.640625-.835938-4.65625-1.554688-9.253906-2.035156-13.722656 3.675781 11.832031 9.550781 33.761718 8.160156 49.363281Zm-3.496094-84.277344c6.589844-2.25 10.039062-5.105469 10.253906-8.5.125-2.027343-.925781-4.019531-2.527344-5.847656-.78125-3.265625-3.316406-5.902344-6.199218-7.175781-1.695313-.753906-3.28125-1.175782-4.746094-1.390625-.40625-1.273438-3.03125-7.550781-15.398438-7.460938-4.335937-1.019531-9.277343-1.5-14.738281-1.429687-11.554687.152344-19.855469 6.089844-25.585937 12.863281-6.519532 7.722656-10.269532 17.445313-10.871094 27.53125-2.847656 47.628906-45.59375 83.960937-15.273438 117.082031C44.859375 323.710938 63.90625 326.199219 80.5 321.347656c8.988281-11.84375 7.902344-35.363281-3.285156-70.21875-6.636719-20.671875 2.519531-34.710937 2.613281-34.851562l.832031.558594c-.089844.136718-8.972656 13.796874-2.492187 33.988281 10.515625 32.757812 12.121093 55.664062 4.871093 68.457031 1.523438-1.738281 2.894532-3.617188 4.089844-5.652344 11.542969-19.644531 5.839844-48.441406.546875-68.394531-6.613281-24.929687 8.066407-51.953125 8.214844-52.222656l.878906.484375c-.148437.265625-14.636719 26.945312-8.125 51.480468 5.335938 20.125 11.078125 49.191407-.652343 69.160157-1.34375 2.285156-2.898438 4.378906-4.640626 6.296875.28125-.097656.558594-.199219.835938-.300782 2.5-2.574218 4.773438-5.609374 6.796875-9.121093 10.179687-17.667969 11.777344-43.648438 7.421875-57.585938-6.375-20.394531-.226562-32.003906.039062-32.488281l.875.476562c-.0625.117188-6.195312 11.757813.039063 31.710938 4.417969 14.144531 2.804687 40.484375-7.507813 58.382812-1.679687 2.917969-3.527343 5.511719-5.527343 7.796876 16.050781-6.5625 28.816406-19.792969 31.621093-32.964844.996094-4.6875 1.191407-9.847656.898438-15.292969 4.074219-18.257813-5.453125-49.15625-9.011719-59.679687-.515625-8.386719.082031-16.167969 2.789063-22.765626 1-2.441406 1.753906-4.75 2.316406-6.957031" style="fill:#000"/><path d="m107.113281 339.285156-4.835937-20.414062c-1.335938-36.082032 36.867187-66.007813 37.25-66.308594l-.609375-.789062c-.390625.300781-38.996094 30.539062-37.628907 67.234374l4.851563 20.511719Zm-43.542969 43.851563-4.628906-.273438c-22.691406-.742187-30.246094-9.066406-30.390625-9.21875C.824219 352.097656 4.53125 262.960938 4.574219 262.0625l-1-.042969c-.167969 3.683594-3.773438 90.550781 24.292969 112.347657.308593.359374 7.855468 8.738281 31.027343 9.496093l4.617188.273438Zm82.960938-29.308594-.996094-.085937 2.039063-24.339844.996093.082031-2.039062 24.34375" style="fill:#000"/><path d="m439.457031 226.722656-34.144531 1.113282-.511719-9.820313s-3.578125 2.808594-8.9375 1.789063c-5.171875-.984376-13.511719-9.320313-12.34375-44.636719.042969-1.296875-1.007812-2.171875-.9375-3.542969.128907-2.429688.390625-4.660156.761719-6.699219 2.808594 3.238281 6.917969 5.410157 12.207031 6.609375l1.25 4.871094c4.242188-.8125 7.652344 6.707031 8.53125 8.828125l.21875.5625 8.179688 20.609375s13.792969-2.839844 20.433593.679688l5.292969 19.636718" style="fill:#f4caac"/><path d="M431.5625 144.714844c-.300781-1.109375-.859375-2.300782-1.910156-3.28125-1.769532-1.648438-4.5-2.410156-8.148438-2.269532 5.089844 1.511719 8.347656 3.960938 10.058594 5.550782Zm-10.867188 31.554687-.132812-.988281c-9.96875 1.320312-23.953125-4.066406-24.09375-4.121094l-.363281.933594c.515625.199219 11.410156 4.398438 20.996093 4.398438 1.226563 0 2.433594-.066407 3.59375-.222657Zm-1.234374-1.503906c.394531 0 .792968-.011719 1.195312-.035156l-.027344-.5.0625-.496094c-8.027344-1.03125-13.75-16.578125-13.808594-16.738281l-.9375.34375c.210938.578125 4.617188 12.546875 11.472657 16.320312-15.300781-1.554687-23.480469-19.980468-23.566407-20.179687l-.917968.398437c.09375.214844 9.285156 20.886719 26.527344 20.886719Zm14.703124 32.320313c-6.640624-3.519532-20.433593-.679688-20.433593-.679688l-8.179688-20.609375-.21875-.5625c-.878906-2.121094-4.289062-9.640625-8.53125-8.828125l-1.25-4.871094c-5.289062-1.199218-9.398437-3.371094-12.207031-6.609375-1.839844-2.128906-3.132812-4.722656-3.820312-7.800781-2.042969-9.058594 7.339843-16.328125 26.550781-18.890625 4.867187-.648437 8.988281-.449219 12.449219.210937 5.429687-.761718 9.398437-.011718 11.820312 2.257813 1.738281 1.632813 2.320312 3.703125 2.46875 5.320313.128906.160156.199219.25.199219.25s7.199219-.128907 14.8125 8.421874c8.167969 9.199219-13.660157 52.390626-13.660157 52.390626Zm-50.910156-33.171876 4.5.316407-5.140625-3.136719c-.082031 1.128906.640625 2.820312.640625 2.820312Zm34.90625 34.507813.167969.984375c.121094-.023438 12.121094-2.007812 16.375 1.808594l.667969-.742188c-4.609375-4.140625-16.699219-2.140625-17.210938-2.050781Zm-3.609375-.039063-.191406-.980468c.675781-.132813 16.535156-3.152344 20.589844 1.167968l-.726563.683594c-3.679687-3.921875-19.511718-.902344-19.671875-.871094" style="fill:#6482f4"/><path d="M491.609375 400.3125c-14.847656 16.574219-30.625 1.023438-30.625 1.023438-9.558594 2.105468-17.34375-.550782-17.34375-.550782l-67.054687-67.425781-3.234376 5.957031c-10.214843 22.46875-28.898437 38.554688-28.898437 38.554688-22.171875 13.019531-26.007813-1.386719-28.71875-10.46875-.382813-1.285156-.355469-3.359375-.023437-5.96875l-1.933594-23.648438 8.105468-5.042968 1.410157-.585938c3.8125-11.910156 7.589843-22.117188 7.589843-22.117188l15.828126-41.105468 9.824218-22.085938 39.90625-8.460937 6.492188-10.058594s6.714844-.585937 14.375-.96875c7.660156-.382813 27.574218-.210937 27.574218-.210937l.390626 11.914062.410156.554688 38.644531 11.785156 4.339844 34.042968 4.171875 45.992188.449218 12.5c4.363282 35.9375-1.679687 56.375-1.679687 56.375" style="fill:#fff"/><g clip-path="url(#b)"><path d="M484.359375 255.125c-1.257813 10.503906-4.90625 40.519531-9.066406 70.390625-8.929688 64.128906-12.644531 74.054687-14.308594 75.820313 2.75 2.355468 16.445313 12.882812 28.433594.5 12.011719-12.414063-2.089844-124.273438-5.058594-146.710938Zm-40.019531-27.976562-41.40625 1.179687-5.546875 10.410156c2.589843 2.488281 24.203125 21.984375 46.953125 3.242188Zm45.796875 175.382812c-4.441407 4.585938-9.144531 6.144531-13.488281 6.144531-8.378907.003907-15.402344-5.785156-16.625-6.855469-2.269532.640626-4.816407.867188-7.226563.867188-4.835937 0-9.09375-.867188-9.359375-.921875l.203125-.980469c.097656.019532 9.765625 1.992188 16.375.011719 1.1875-.359375 4.957031-8.417969 14.285156-75.421875 4.839844-34.75 8.992188-69.703125 9.484375-73.875l-38.445312-11.988281v2.9375l-.179688.152343c-7.523437 6.261719-14.933594 8.453126-21.609375 8.453126-14.382812 0-25.378906-10.160157-26.945312-11.683594l-40.070313 7.476562C354.09375 252.5 311.527344 351.574219 316.523438 369.480469c2.167968 7.769531 6.773437 12.566406 12.636718 13.160156 7.722656.796875 24.402344-5.25 49.640625-54.445313 12.765625-24.875 15.570313-44.34375 8.339844-57.867187-7.910156-14.789063-25.40625-16.964844-25.582031-16.980469l.117187-.996094c.179688.019532 18.191407 2.257813 26.347657 17.503907 7.394531 13.832031 4.589843 33.613281-8.332032 58.796875-24.195312 47.15625-40.878906 55.046875-49.328125 55.046875-.457031 0-.894531-.019531-1.304687-.0625-6.292969-.640625-11.214844-5.699219-13.496094-13.886719-5.214844-18.679688 38.304688-119.273438 40.160156-123.546875l.105469-.242187 40.613281-7.574219 5.882813-11.042969 2.457031-.070312-.421875-8.367188c-.914063.546875-3.378906 1.824219-6.378906 1.824219-.628907 0-1.28125-.054688-1.949219-.1875-2.886719-.570313-5.363281-2.414063-7.367188-5.480469l.839844-.546875c1.84375 2.832031 4.101563 4.527344 6.710938 5.042969 4.191406.835937 7.921875-1.691406 7.960937-1.714844l.140625.207031-.355468-7.183593.996093-.046876.820313 16.425782 39.5625-1.125v12.34375L484.875 250.792969l-.039062.351562c.875 6.316407 18.890624 137.339844 5.300781 151.386719Zm-93.339844-206.222656c-1.757813 0-5.246094-15.578125-5.800781-19.316406-.5625-3.777344-.222656-4.6875.464844-4.898438 2.027343-.613281 4.375 2.890625 5.160156 4.175781l1.558594-.308593.195312.980468-2.257812.445313-.179688-.308594c-1.0625-1.835937-3.042969-4.257813-4.121094-4.042969-1.074218 1.851563 3.742188 20.449219 5.125 22.257813.738282-.136719 2.164063-1.207031 3-1.980469l.679688.734375c-.40625.375-2.503906 2.261719-3.824219 2.261719" style="fill:#000"/></g><path d="m314.96875 365.566406-1.710938-28.050781 9.835938-5.984375.519531.855469-9.320312 5.667969 1.675781 27.453124-1 .058594" style="fill:#000"/><path d="M316.710938 335.390625s-1.847657-12.246094-1.582032-13.519531c.265625-1.277344 10.734375-13.875 11.925782-13.875h3.933593s-8.027343 22.398437-8.152343 23.648437l-6.125 3.746094" style="fill:#f4caac"/><path d="m323.511719 317.710938-.933594-.359376 3.710937-9.632812 4.675782-.21875.046875.996094-4.023438.191406-3.476562 9.023438" style="fill:#000"/><path d="M333.476562 191.765625h-5.957031c-3.765625 0-6.851562-3.085937-6.851562-6.851563 0-3.769531 3.085937-6.851562 6.851562-6.851562h5.957031c3.769532 0 6.851563 3.082031 6.851563 6.851562 0 3.765626-3.082031 6.851563-6.851563 6.851563Zm-37.59375-24.277344s2.746094-9.210937 10.574219-9.371093c7.828125-.160157 7.113281-1.347657 7.113281-1.347657s8.714844-3.238281 12.632813 1.355469c3.914063 4.597656 2.722656 5.871094 2.722656 5.871094s-5.917969 11.492187-15.597656 12.425781c-9.679687.9375-14.402344-5.785156-17.445313-8.933594Zm-160.148437-125V194.65625h226.382813V42.488281H135.734375" style="fill:#fff"/><path d="M361.617188 194.15625H136.234375V43.917969h225.382813Zm-112.863282-173 28.765625 12.972656h-57.535156ZM368.15625 41.910156c0-4.285156-2.582031-7.78125-5.742188-7.78125h-82.464843l-30.523438-13.765625V-.0039063h-1V20.207031l-30.871093 13.921875h-82.121094c-3.160156 0-5.738282 3.496094-5.738282 7.78125v2.007813h5.539063V195.15625h227.382813V43.917969h5.539062v-2.007813" style="fill:#000"/><path d="M265.996094 93.976562h-7.886719v4.640626h7.886719Zm-22.863282 8.628907-33.199218 22.378906v-40.03125c13.820312 0 26 7 33.199218 17.652344" style="fill:#f4caac"/><path d="M265.996094 87.273438h-7.886719v4.640624h7.886719Zm-18.542969 51.722656c-5.679687 15.199218-20.339844 26.019531-37.519531 26.019531-22.113282 0-40.03125-17.921875-40.03125-40.03125s17.917968-40.03125 40.03125-40.03125v40.03125l37.519531 14.011719" style="fill:#6482f4"/><path d="M265.996094 100.675781h-7.886719v4.640625h7.886719Zm-16.023438 24.308594h-40.039062l33.199218-22.378906c4.320313 6.390625 6.839844 14.078125 6.839844 22.378906" style="fill:#000"/><path d="M320.585938 57.871094H176.570312v14.296875h144.015626Zm-110.652344 67.113281 37.519531 14.011719c1.628906-4.359375 2.519531-9.082032 2.519531-14.011719Zm56.0625-13.199219h-7.886719v-4.640625h7.886719v4.640625" style="fill:#fbbe28"/><path d="m245.726562 184.421875-9.035156 8.832031-4.953125-8.519531c-3.589843.484375-14.152343-4.558594-14.152343-6.421875 0-1.863281 6.835937-.96875 6.835937-.96875-5.800781-2.414062-9.390625-7.179688-8.355469-7.9375 1.035156-.761719 9.804688 4.695312 9.804688 4.695312s-10.632813-9.1875-8.976563-10.308593c1.65625-1.125 10.910157 6.371093 10.910157 6.371093s-.898438-.484374-3.316407-3.589843c-2.414062-3.109375-3.796875-5.109375-1.929687-5.316407 1.863281-.207031 11.324218 8.835938 11.324218 8.835938l.621094-.757812s-2.625-3.523438-1.175781-6.285157 2.625.898438 5.109375 6.144531c2.488281 5.25.5 9.335938.5 9.335938l2.953125 3.003906 3.835937 2.886719" style="fill:#f4caac"/><path d="m229.027344 172.019531.691406-.722656-1.550781-1.476563c-5.925781-6.207031-5.953125-7.882812-5.953125-7.953124l-.492188-.066407-.484375-.128906c-.117187.425781-.011719 2.328125 6.222657 8.855469Zm6.378906-2.222656c-.339844-.152344-1.058594-1.46875-1.492188-2.558594l-.929687.367188c.199219.5.796875 1.921875 1.480469 2.679687-.921875 1.003906-2.988282 3.742188-1.777344 7.136719l.941406-.335937c-1.269531-3.5625 1.773438-6.34375 1.90625-6.460938l.574219-.515625Zm-3.34375 14.496094 1.527344 2.628906-.863282.503906-1.308593-2.25-1.742188-.386719-.011719.023438c-2.003906-.679688-12.039062-4.171875-12.78125-6.164062-.097656-.269532-.078124-.546876.058594-.777344.636719-1.082032 2.832032-1.324219 4.769532-1.3125-2.808594-1.835938-6.238282-5.277344-6.347657-6.726563-.027343-.398437.15625-.730469.496094-.882812.941406-.425781 3.710937.886719 6.289063 2.332031-1.429688-1.367188-3.015626-2.917969-4.128907-4.09375-1.40625-1.484375-1.980469-2.515625-1.808593-3.246094.082031-.347656.316406-.546875.511718-.621094l.34375.941407c.09375-.035157.113282-.078125.117188-.09375 0 .007812-.128906.546875 1.5625 2.335937 2.414062 2.546875 7.097656 6.886719 7.433594 7.199219l.738281.46875-.539063.84375-.777344-.492187c-3.734374-2.375-8.1875-4.773438-9.234374-4.679688.21875 1.152344 4.964843 6.019531 7.761718 6.839844.210938.019531.378906.039062.515625.054687l.234375-.101562c.183594.414062 1.027344 2.511719-.234375 3.136719l-.445312-.894532c.1875-.089844.144531-.621094-.007813-1.183594-2.492187-.253906-5.863281-.207031-6.386718.683594.246093.875 6.332031 3.484375 11.933593 5.398438l2.324219.515625" style="fill:#000"/><path d="M352.292969 242.214844c-.5625-5.929688-4.320313-16.089844-4.320313-16.089844l-10.550781 4.621094-.007813-.019532s-.089843.046876-.273437.136719c-.128906.0625-.308594.140625-.519531.230469-.308594.152344-.707032.332031-1.199219.53125v.011719c-6.589844 2.738281-28.769531 10.066406-54.519531-2.453125l-4.761719-8.167969s-26.386719 14.128906-41.707031-30.800781l-3.230469-1.539063s3.230469-9.53125 8.339844-11.0625l4.601562 2.722657s21.269531 2.390624 25.019531 5.960937c0 0 7.597657-23.820313 28.058594-21.761719l-1.339844 2.648438s6.339844 9.0625 14.109376 9.339844c7.761718.28125 18.351562-6.320313 19.25-14.289063 0 0 19.148437.832031 31.070312 18.871094 10.820312 16.390625 11.601562 45.789062-8.019531 61.109375" style="fill:#fbbe28"/><path d="m327.085938 216.589844-3.671876-2.171875-.507812.859375 3.667969 2.171875Zm-5.183594.636718-4.742188-2.808593-.511718.859375 4.742187 2.8125Zm40.300781-11.847656-.214844-.976562c-.390625.085937-9.128906 2.066406-12.382812 8.96875-1.058594-2.699219-2.476563-4.835938-3-5.574219 5.277343-9.238281 11.214843-24.65625 11.277343-24.8125l-.933593-.355469c-.0625.15625-6.09375 15.8125-11.371094 24.949219l-.164063.285156.195313.265625c.058594.078125 5.9375 8.035156 3.785156 14.195313-1.054687 3.015625-3.890625 5.144531-8.523437 6.367187-.359375.171875-35.800782 17.1875-48.5625-3.382812l-.851563.527344c5.023438 8.09375 13.355469 10.609374 21.785157 10.609374 13.78125 0 27.804687-6.734374 27.972656-6.824218 4.882812-1.273438 7.953125-3.617188 9.121094-6.96875.90625-2.585938.550781-5.386719-.234376-7.871094 2.621094-7.25 12.003907-9.378906 12.101563-9.402344Zm-116.351563 6.015625c-6.6875-7.890625-9.875-19.238281-10.355468-21.054687 6.179687-7.089844 8.304687-9.65625 8.324218-9.683594l-.769531-.636719c-.023437.027344-2.179687 2.636719-8.480469 9.863281l-.171874.195313.0625.25c.03125.128906 3.222656 12.972656 10.625 21.710937 6.683593 7.886719 13.628906 11.796876 21.039062 11.796876 3.070312 0 6.21875-.671876 9.464844-2.011719l-.378906-.921875c-10.621094 4.382812-20.226563 1.273437-29.359376-9.507813Zm25.746094-12.042969.996094.101563c.902344-8.53125-2.882812-13.277344-3.046875-13.472656l-.773437.632812c.035156.042969 3.683593 4.640625 2.824218 12.738281Zm11.332032-20.035156c-.148438.160156-14.714844 16.273438-6.316407 41.542969l-.949219.316406c-8.589843-25.851562 6.378907-42.375 6.53125-42.539062l.734376.679687M313.570312 171.039062c-.457031 0-.824218-.367187-.824218-.824218 0-.453125.367187-.824219.824218-.824219.453126 0 .824219.371094.824219.824219 0 .457031-.371093.824218-.824219.824218Zm0-2.648437c-1.007812 0-1.824218.820313-1.824218 1.824219 0 1.007812.816406 1.824218 1.824218 1.824218 1.003907 0 1.824219-.816406 1.824219-1.824218 0-1.003906-.820312-1.824219-1.824219-1.824219Zm-8.539062 6.347656c1.710938-1.53125 4.722656-5.898437 7.289062-9.847656 2.214844 2.335937 6.285157 6.488281 8.359376 7.789063-2.070313 1.421874-8.773438 5.335937-15.648438 2.058593Zm24.710938-10.71875c-.011719-.089843-1.222657-8.964843-9.464844-8.457031l.0625 1c6.722656-.40625 8.164062 6.140625 8.378906 7.390625-2.816406 3.839844-6.289062 8-7.058594 8.140625-.847656-.117188-5.269531-4.339844-9.050781-8.355469l-.4375-.464843-.347656.539062c-3.183594 4.933594-6.96875 10.210938-7.707031 10.496094-.730469-.152344-4.421876-3.691406-7.65625-7.105469.617187-1.539063 3.929687-8.882813 10.953124-9.175781l-.042968-.996094c-8.472656.347656-11.925782 10.023438-11.960938 10.121094l-.097656.285156.207031.222656c2.050781 2.175782 6.820313 7.109375 8.328125 7.59375 2.328125 1.28125 4.648438 1.757813 6.816406 1.757813 5.855469 0 10.578126-3.472657 11.222657-3.972657 1.679687-.535156 5.941406-6.167968 7.761719-8.660156l.117187-.164062-.023437-.195313" style="fill:#000"/><path d="M334.941406 143.226562c-.515625 1.28125-1.507812 2.21875-2.570312 2.839844-1.378906.808594-3.019532 1.019532-4.507813.480469-1.230469 2.507813-2.929687 4.699219-4.960937 6.429687l1.023437 6.253907c-8.871093 7.5-20.085937 2.503906-20.085937 2.503906l1.613281-5.226563c-6.949219-2.117187-11.152344-8.582031-12.179687-16.511718-.132813-.929688-.191407-1.882813-.191407-2.851563 0-2.691406.492188-5.257812 1.390625-7.609375 11.21875-.082031 17.570313-4.511718 20.949219-8.308594.640625-.722656 2.234375-2.824218 2.671875-3.460937 3.242188 1.207031 7.070312 3.535156 9.320312 6.125 2.363282 2.691406 3.488282 6.417969 2.382813 10.710937.683594-.355468 1.6875-.082031 2.53125.28125 1.203125.519532 2.117187 1.507813 2.582031 2.730469.53125 1.402344.910156 3.441407.03125 5.613281" style="fill:#f4caac"/><path d="M305.453125 136.210938s-1.742187-3.683594-5.441406-2.851563c-3.703125.828125-3.257813 3.234375-3.257813 3.234375s.128906 3.957031 4.660156 3.574219c4.53125-.382813 4.039063-3.957031 4.039063-3.957031Zm7.875-.257813s4.683594-6.828125 9.535156-1.402344c0 0-.023437 5.363281-4.769531 5.234375-4.742188-.128906-4.765625-3.832031-4.765625-3.832031" style="fill:#fff"/><path d="M309.414062 147.488281s.9375-1.234375 2.554688-1.148437c1.617188.082031 3.316406 1.441406 4.933594.847656 0 0-2.082032 5.195312-7.148438 4.9375-5.0625-.253906-6.679687-3.914062-6.679687-3.914062s1.667969-.816407 2.9375-1.574219c1.488281-.894531 3.402343.851562 3.402343.851562" style="fill:#fbbe28"/><path d="M305.453125 148.5625c3.742187 1.179688 8.875-.320312 8.875-.320312-4.171875 3.382812-8.875.320312-8.875.320312" style="fill:#fff"/><path d="m315.695312 155.667969-.664062-.746094c-.023438.019531-2.621094 2.210937-8.382812 1.082031l-.191407.980469c1.261719.25 2.382813.347656 3.371094.347656 3.941406 0 5.773437-1.578125 5.867187-1.664062ZM333 138.316406l.214844-.976562c-1.542969-.34375-4.738282-.144532-5.800782 3.035156l.949219.316406c1.039063-3.117187 4.492188-2.40625 4.636719-2.375Zm-20.679688 5.027344-2.355468-.351562-.148438.988281 2.355469.351562Zm-6.695312-1.191406c-.121094-1.023438 1.402344-2.058594 2-2.371094l-.460938-.886719c-.113281.058594-2.761718 1.457031-2.53125 3.375Zm12.335938 4.828125c-.605469-.082031-1.324219-.738281-1.550782-.984375l-.738281.675781c.109375.117187 1.078125 1.152344 2.152344 1.300781Zm-14.199219-7.476563c.5625-3.007812.589843-4.824218-2.050781-4.65625-2.636719.171875-1.363282 5.328125-1.363282 5.328125 1.933594.609375 3.414063-.671875 3.414063-.671875Zm17.210937-.589844s1.515625-3.9375 0-4.875c-1.515625-.933593-6.125-1.023437-4.308594 5.574219 0 0 2.761719.726563 4.308594-.699219Zm-15.519531-2.703124s-.632813-3.191407-3.273437-3.445313c-2.636719-.257813-5.0625.847656-6.296876.210937l.917969 3.996094s1.464844-3.402344 4.101563-3.316406c2.640625.085938 4.550781 2.554688 4.550781 2.554688Zm7.875-.257813s1.535156-4.167969 5.660156-4.125c4.128907.042969 5.191407-.46875 5.191407-.46875l-1.316407 3.191406s-3.535156-3.019531-6.34375-1.105469c-2.808593 1.914063-3.191406 2.507813-3.191406 2.507813" style="fill:#000"/><path d="M314.078125 124.660156c-2.019531 2.078125-6.167969 4.355469-14.574219 4.507813 8.140625-1.132813 13.082032-4.753907 15.917969-7.941407.363281-.410156.6875-.8125.988281-1.199218-.164062 1.140625-.691406 2.945312-2.332031 4.632812Zm20.042969-6.777344c-4.152344-.65625-7.25-2.429687-9.207032-5.296874-2.558593-3.75-2.621093-8.496094-2.261718-11.710938-1.542969.441406-2.984375 1.222656-4.210938 2.316406-.054687.394532-.085937.785156-.089844 1.1875-.074218 5.847656 5.09375 10.671875 5.148438 10.71875l-.679688.738282c-.226562-.210938-5.546874-5.179688-5.46875-11.46875 0-.015626.003907-.03125.003907-.042969-.300781.359375-.585938.734375-.84375 1.140625l-1.96875 3.140625c-.71875 1.148437-1.191407 2.378906-1.429688 3.640625-9.402343.398437-17.472656 7.648437-18.75 17.289062l-.113281.613282c1.496094.105468 3.109375.042968 4.464844.042968 7.574218 0 12.980468-1.628906 16.101562-4.855468 2.28125-2.359376 2.628906-4.878907 2.660156-5.996094 3.066407 1.21875 5.859376 3.09375 8.003907 5.566406 2.363281 2.6875 3.972656 6.089844 4.363281 10.109375.898438.007813.789062-.089844 1.886719.199219.441406.109375 1.261719.449218 1.59375.738281l.007812-.066406.171875-1.261719c.117188-.878906.167969-1.75.167969-2.609375 0-3.53125-.960937-6.921875-2.660156-9.851563.660156-.609374 1.25-1.320312 1.75-2.117187Zm2.242187-6.667968c0 1.164062-.210937 2.328125-.59375 3.457031-2.59375-1.089844-4.449219-2.769531-5.507812-5.027344-1.277344-2.730469-1.226563-5.886719-.804688-8.503906.648438.246094 1.277344.554687 1.886719.933594 3.238281 2.039062 5.019531 5.550781 5.019531 9.140625Zm-7.007812-1.148438c-1.417969-3.027344-1.347657-6.453125-.878907-9.246094-1.574218-.425781-3.207031-.476562-4.777343-.191406-.375 3.0625-.410157 7.800782 2.042969 11.394532 1.859374 2.722656 4.878906 4.371093 8.960937 4.929687l.027344-.046875c.265625-.421875.492187-.855469.6875-1.296875-2.84375-1.1875-4.886719-3.039063-6.0625-5.542969Zm-16.851563 20.128906-1.496094-1.328124c1.570313-1.769532 5.902344-4.464844 11.070313-1.984376l-.863281 1.804688c-5.078125-2.4375-8.566406 1.347656-8.710938 1.507812" style="fill:#6482f4"/><path d="M311.53125 163.746094c-2.417969 0-5.070312-.421875-7.878906-1.546875l.375-.929688c10.933594 4.386719 19.5-2.359375 19.585937-2.425781l.625.777344c-.066406.054687-5.234375 4.125-12.707031 4.125" style="fill:#000"/></svg>