<svg xmlns="http://www.w3.org/2000/svg" version="1.0" viewBox="-0.3 -1.4 140.7 501.5" style="fill:#000" aria-label="Hand Drawn Full Body Woman Thinking"><path d="M83.6 489.7c.1-8.6.3-17.1.4-25.7l-3.4-81 27.9-4.7-5.1 90.9c3.1 3.3 6.9 7.1 11.7 10.7 6.3 4.8 12.4 8.1 17.4 10.4l-48.9-.6zM30.5 378.3l5.1 90.9c-3.1 3.3-6.9 7.1-11.7 10.7-6.3 4.8-12.4 8.1-17.4 10.4l48.9-.6c-.1-8.6-.3-17.1-.4-25.7l3.4-81-27.9-4.7z" style="fill:#e6ae7e"/><path d="M85.2 57.5c.8.4 1.6.9 2.6 1.5m-.1 0c2.8 1.8 6.1 4.4 9.1 8.3 6.8 9 7.1 18.7 7 21.8-20.1-.3-40.2-.7-60.3-1-.1-3.5.1-12.8 6.3-21.8 3.8-5.5 8.3-8.7 11.2-10.4C48.7 34.2 48.4 13 58 4.8 62.6.9 69 .2 70.5 0c13.7-1.4 24.4 9 27 11.7 4.4-1.4 6.9-.8 8.4.1 6.6 3.9 5.6 20.6-1.5 31.2-6.7 9.8-17.5 12.7-21.4 13.5.6.3 1.4.6 2.2 1" style="fill:#171717"/><path d="M71 80.1c1.9 0 3.7-.1 5.6-.1m0 0c1.3 0 2.7-.1 4-.1 8.9 1.8 37.3 8.7 48.8 31 4.6 8.9 6.9 21.1 7.9 26 2.1 11.3 2.5 20.9 2.4 27.8-3.5.7-7 1.5-10.5 2.2-3.9 6.4-7.8 12.8-11.6 19.1 4.2 63.6 8.4 127.1 12.6 190.7-15.6 5.2-39.6 11.1-69.1 10.2-22.5-.6-41.2-5-54.8-9.3 8.2-74.4 16.4-148.9 24.5-223.3-4.9 1.5-9.8 3.1-14.6 4.6-2.8-6.2-6.5-15.5-9.2-27.1-2.2-9.4-3.6-15.1-2.9-19.8 3.2-21.8 50.7-30.8 54.8-31.5 4-.2 8.1-.3 12.1-.4" style="fill:#ffd558"/><path d="M75.7 77.8c.6 0 1.2.1 1.8.1m0 0c4.6.3 7.4 1 9 3.4 2.9 4 1.1 10.1-1.3 13.7-1.9 2.9-6.1 6.5-9.3 5.8-3.7-.8-6.8-5.9-5.9-12.1-.4 7.3-4.5 12.4-8.5 12.7-3.8.3-7.8-4.8-9.4-8-.9-1.7-3.5-7-1.4-11 2.6-5.3 11.6-5 21.5-4.7 1.3 0 2.4.1 3.5.1" style="fill:#edeced"/><path d="M138 493.1c.5 1.1 1.2 3.2.8 6.2-14.4.2-28.7.4-43.1.6-1-2.1-2-4.1-3-6.2-.8 2.1-1.7 4.1-2.5 6.2-2.9.1-5.8.1-8.7.2l1.2-18c.4-6.1.9-12.1 1.3-18.1.5 1 1.3 2.5 2.4 4.3 1.5 2.4 11.5 17.7 27 18.5 2 .1 5.2-.1 9.3-1.6 7.1-.3 13.1 2.8 15.3 7.9zm-137.1 0c-.5 1.1-1.2 3.2-.8 6.2 14.4.2 28.7.4 43.1.6 1-2.1 2-4.1 3-6.2.8 2.1 1.7 4.1 2.5 6.2 2.9.1 5.8.1 8.7.2l-1.2-18c-.5-6.1-.8-12.1-1.2-18.1-.5 1-1.4 2.5-2.6 4.3-2.3 3.4-12.2 17.8-27 18.5-2 .1-5.2-.1-9.3-1.6-7-.3-13 2.8-15.2 7.9z" style="fill:#171717"/><path d="M83.8 174c8.8-.9 16.9-2.1 24.4-3.4v-3.5c2.1-1.5 6.2-3.9 11.8-4.8 7-1.1 12.5.7 15 1.7.9 5.2 2.9 19.9-5.6 28.4-6 5.9-14.6 6.4-33.1 4.9-14.8-1.2-34.7-3.5-58.3-8.3-.2.2-5.4 4.9-11.3 3.1-6.6-2.1-7.5-10.2-7.6-11.4-.4-4.7 1.2-11.2 6.4-13.6.3-.1.6-.3.9-.4-2.1-3.8-4.2-8.3-6.5-13.5 1-1.1 2.3-2.3 3.9-3.5 2.3-1.7 4.6-2.8 6.4-3.5 9.8-18.3 19.7-36.6 29.5-54.9 0-1.4.1-2.9.1-4.3-.4-.2-.8-.5-1.2-.7V72.7c-4.9-4.1-7.2-12.8-6.9-24.2-1.6 0-2.6-.5-3-.8-3.5-2.6-2.3-11.4 1.8-12.8.9-.3 1.8-.2 2.6 0 .6-3.2 1.2-6.5 2.1-10 2.7.4 5.6.7 8.5 1 8.3.7 16.1.8 23.1.4-2.3 2.9-3.1 4.8-2.5 5.9 1.1 1.8 6.2 1.2 15.5-1.9-.2.7-1.6 5.6-4 11.9 1 .1 2 .4 2.7 1.1 2.7 2.7 1 10.1-3.2 11.5-1.9.6-3.8-.2-4.8-.7-3 5.8-6.8 11.5-11.1 15.5 4.5 5.6 4.1 9.1 3.8 10.5-.5 2.1-1.8 3.3-4.3 6.2h-.1c-.6.7-1.2 1.4-1.8 2.2-3.1 4-5.3 7.6-6.5 9.9-5.1 40-11.4 65.7-18.7 77.2 7.3 0 15.1-.2 23.4-.8l6.6-.6m2-.2c-.7.1-1.3.1-2 .2" style="fill:#e6ae7e"/><path d="m101.6 28.2-2.7 11.9c-4.2 5.3-6.6 7.8-7.4 7.3-1-.6 1.2-6.6 6.6-18.1l3.5-1.1zm-46.7-4.3c-1.1.8-1.5 1.9-1.6 2.2-.8 10.2-.9 15.4-.3 15.4.6.1 2.2-6.1 4.5-18.5-.3 0-1.5.1-2.6.9z" style="fill:#171717"/><path d="M97.5 55.9c0 1.7-1.4 3.1-3.1 3.1s-3.1-1.4-3.1-3.1c0-1.7 1.4-3.1 3.1-3.1s3.1 1.4 3.1 3.1zM47.4 45.3c-1.7 0-3.1 1.4-3.1 3.1 0 1.7 1.4 3.1 3.1 3.1 1.7 0 3.1-1.4 3.1-3.1s-1.4-3.1-3.1-3.1z" style="fill:#edeced"/><path d="M63.2 37c1.3.4.7 2.5 0 3.2-.4.5-1.2.7-1.7.4-.4-.2-.6-.7-.6-1.1-.1-1.1.9-3 2.3-2.5zm15.6 6.9c.1.4.3.8.7 1 .6.3 1.3-.1 1.6-.6.6-.8.9-2.9-.4-3.2-1.3-.3-2.1 1.7-1.9 2.8zM77 132.6c.2.4.5.8.9.9.6.1 1.3-.3 1.5-.9.4-.9.4-3-1-3-1.4-.1-1.8 2-1.4 3zm-1.4-20.7c.2.4.5.8.9.9.6.1 1.3-.3 1.5-.9.4-.9.4-3-1-3-1.4-.1-1.8 1.9-1.4 3zm3.6 39.6c.2.4.5.8.9.9.6.1 1.3-.3 1.5-.9.4-.9.4-3-1-3-1.4-.1-1.8 1.9-1.4 3zM72.6 65.5c3-.4 5.7 1.1 7.3 3.6.2.3-.1.6-.3.7-1.2 2-2.8 3.9-4.3 5.7-.6.7-1.9-.3-1.3-1 1.4-1.9 2.9-3.8 4.5-5.5-.7-.8-1.5-1.3-2.3-1.6-1.1 2-2.4 3.8-3.6 5.7-.6.9-2 .1-1.4-.8 1.2-1.8 2.3-3.5 3.5-5.2-3.5-.3-7 2.8-9.5 5.6v.1c-.4 2.9-.7 5.9-1.4 8.6-.2.8-1.6.7-1.5-.2.2-2.8.9-5.6 1.5-8.4-.1-.1-.2-.3-.2-.4-.7-.5-1.5-.9-2.3-.5V74c-.1 5.7-.5 11.4-.8 17.1-.1 1.1-1.7 1.1-1.7 0 .3-5.6.4-11.3.9-17-.3-.2-.7-.5-1-.7-.5-.4-.2-1.4.5-1.1.2.1.4.2.7.3 0-.4.1-.8.1-1.1 0-.2.2-.4.3-.5 0-.1.1-.3.3-.4 1.3-.9 2.6-.2 3.7.7 2.2-2.7 4.7-5.3 8.3-5.8zm5 12.5c1.6-1.5 3.1-3.3 4.4-5 .5-.7-.6-1.4-1.1-.9-1.6 1.5-3.2 3.2-4.5 4.9-.6.8.6 1.6 1.2 1zm4.6-2.2c-1.5 1.4-3 2.7-4.4 4.2-.7.8.4 1.9 1.2 1.2 1.4-1.4 2.8-2.9 4.2-4.4.6-.7-.3-1.7-1-1zM50.3 43.5c.1-1 0-6.7 2.1-5.3.6.4 1.2-.5.7-.9-1.1-1-2.5-.7-3.4.4-1.2 1.5-1 4-1.1 5.8 0 1 1.7 1 1.7 0zm44.6 1.2c3.4.7.2 5.3-.3 7.1-.2.8 1 1.4 1.4.6.9-1.8 2.2-3.8 2-5.9-.2-1.7-1.3-2.9-3-3.1-.7-.1-.8 1.2-.1 1.3zM27.4 154.5c1.1-2.4 2.3-4.8 3.3-7.2.2-.4 0-.9-.3-1.1-.1-.2-.4-.4-.7-.3-6.2 1.7-11.2 6.4-14.1 11.9-.5 1 .9 1.8 1.5.8 2.7-5 6.8-8.4 11.7-10.9-1 2-1.9 3.9-2.8 5.9-.5 1 1 1.9 1.4.9zm6.6 23.1c-3.1-3.3-5.6-7-7.9-10.9-.5-.9-1.9-.1-1.4.8 2.8 5.4 8 13.9 14.2 15.9 6.1 2 10.4-3.2 13.4-7.7.4-.6-.6-1.2-1-.6-1.5 2-3.5 4.8-5.9 6-5.3 2.5-8.4-.3-11.4-3.5zm84.2-10.1c-3 .7-6.1 1.3-9.1 2.2-1 .3-.6 1.7.4 1.5 3.1-.6 6.1-1.6 9.1-2.4.8-.2.4-1.5-.4-1.3zm-98.1 7c1.6.3 3.3.5 4.9.7.7.1 1.1-1 .3-1.1l-4.8-1.2c-1-.2-1.4 1.4-.4 1.6zm-.5 5.1c1.6.4 3.3.4 5 .6.7.1.9-1.1.2-1.3-1.6-.3-3.3-.8-4.9-.8-1-.1-1.2 1.2-.3 1.5zm.5 5c1.6.4 3.5.3 5.1.3 1 0 .9-1.3 0-1.4-1.6-.2-3.5-.6-5.1-.3-.8 0-.7 1.2 0 1.4zm1.7 3.8c1.1 0 2.2-.1 3.3-.2.9-.1.9-1.3 0-1.4-1.1 0-2.2-.1-3.3-.1s-1.1 1.7 0 1.7zm8.1-4.5c-.4-.1-.6-.1-1-.1-.7 0-.9 1-.4 1.3.4.2.5.3.9.4 1 .4 1.5-1.3.5-1.6zm-.3-5.1h-.8c-1.1 0-1.1 1.7 0 1.7h.8c1 0 1-1.7 0-1.7zM68.8 76c-.3.5-.6.8-.7 1.3-.2.5.5 1.2 1 .8.5-.4.8-.8 1.1-1.3.7-.8-.8-1.7-1.4-.8zm3.5 4.1c.4-.3.6-.6.9-1 .6-.9-.8-1.7-1.5-.8-.2.3-.4.6-.5 1-.1.6.6 1.2 1.1.8zm3.1.1c-.3.3-.5.6-.7 1-.3.6.3 1.4 1 1 .4-.2.6-.5.9-.8.7-.8-.5-2-1.2-1.2zM129.7 192c.6-3.2-.4-6.7-1.8-9.5-.4-.9-1.7-.1-1.3.8 1.2 2.8 1.4 5.5 1.6 8.5.1.8 1.4 1.1 1.5.2zm.3-7.7c.1.6.2 1.1.4 1.7.3.7 1.5.7 1.4-.2-.1-.7-.2-1.3-.4-1.9-.2-.9-1.6-.5-1.4.4zm-88-6.2c1.9.1 3.9-1.2 4.3-3.1.2-.8-.9-1.4-1.4-.6-.6 1.1-1.4 2.1-2.8 2-1.4 0-2.4-1.1-2.7-2.3-.2-.9-1.6-.5-1.4.4.5 1.9 2.1 3.5 4 3.6zm-4-46.3c-2.1-5.9-4.2-11.8-6.5-17.6-.2-.7-1.3-.4-1.1.3 1.9 6 3.9 11.9 5.9 17.8.4 1 2.1.6 1.7-.5zm31.9-30.7c.6 17.7 1.9 35.5 2.9 53.2 0 .5.4.8.8.8h.2c.8-.1 1.6 0 2.3-.3.4-.1.5-.4.5-.8-.9-18.2-2.2-36.4-3.4-54.6-.1-1.1-1.8-1.1-1.7 0 1.2 18 2.4 36.1 3.9 54.1-.3 0-.7.1-1 .1-1-17.5-1.7-35-3-52.5-.1-.9-1.6-1-1.5 0zM14.7 154c4.9-5.8 10.1-9.8 17.4-12.3.8-.3.5-1.6-.4-1.4-7.2 1.8-14.2 6.4-18.2 12.7-.5.8.6 1.6 1.2 1zm123.9 7.3c.9.5 1.8-.9.8-1.4-9.9-5.3-21.3-5-31 .4-1.3-14.7-2.7-29.5-4.4-44.2-.1-.9-1.5-.9-1.4 0 1.3 17 3 34.1 4.7 51.1 0 .1.1.3.1.4.1.3.4.6.8.4.3 0 .5-.1.7-.4 9.7-5.9 18.9-5 29.5-2.2 1 .3 1.4-1.2.4-1.5-10.5-3.3-20.7-4-30 2.2-.1-1.4-.3-2.8-.4-4.3 9.7-5.3 20.5-5.4 30.2-.5zm-8.7 209.8C89.6 383.4 48.4 384.5 7.8 373c-1-.3-1.5 1.3-.4 1.6 40 11.7 83.4 11.3 122.9-2.3.7-.2.4-1.4-.4-1.2zM26.9 195c-1-.3-1.5 1.3-.4 1.6 30 7.9 61.1 9 91.5 2.4.7-.2.4-1.3-.3-1.1-30.5 5.5-60.8 4.9-90.8-2.9zm90.8 6.9c-28.4 9.1-63.4 4.9-91.8-1.8-1.1-.2-1.5 1.4-.4 1.6 28.8 6.8 64 11.2 92.6 1.5.7-.3.4-1.6-.4-1.3zM40 387.1c-2.4.8-4.6 1.3-6.7-.5-.7-.6-1.6.3-1 1 2.1 2.1 6 2.9 8.4.8.6-.6 0-1.6-.7-1.3zm66-1.3c-2.5 1.2-5.2 1.4-7.9.6-.8-.3-1.2 1-.4 1.3 3.1 1 6.2.9 9.1-.5 1-.4.1-1.8-.8-1.4zm-41.1-334c-.1.3-.1.7.4.9.1.1.2.1.3.1 1 .3 2.1.2 3 .6 1 .5 1.8-1 .8-1.5-.8-.4-1.8-.3-2.6-.5C68.9 47.2 71 43 73 38.7c.4-.8-.8-1.5-1.2-.7-2.3 4.5-4.6 9-6.8 13.5-.1.2-.1.3-.1.3zm5.9 9.3c-2.6-2.9-7.1-5.3-11.1-4.2-.8.2-.6 1.4.2 1.4 3.9.3 7.1.8 10 3.7.6.5 1.5-.4.9-.9zm-6.5-.3c-.7.1-.5 1 0 1.2.4.2.9.2 1.3.3 1 .1 1-1.4 0-1.5h-1.3zm-4.7-27c3.3-.3 6.4.6 8.8 3 .5.5 1.3-.3.8-.8-2.4-3-6.1-4.4-9.8-3.8-.9.2-.7 1.7.2 1.6zm17 5.4c3.9-.9 7.7-.2 11.1 1.8.9.5 1.7-.8.8-1.4-3.7-2.5-8.1-2.9-12.3-1.6-.7.2-.4 1.4.4 1.2zm-19.4 8.6c.3-.4.5-.8.7-1.2.4-.8-.7-1.5-1.2-.7-.3.4-.5.8-.7 1.2-.5.8.6 1.5 1.2.7zm1.6.7c.4-.4.7-.9.9-1.4.5-.9-.8-1.6-1.3-.8-.3.5-.6.9-.8 1.5-.2.7.7 1.2 1.2.7zm21.4 2.7c-.5.6-1 1.1-1.3 1.7-.4.8.5 1.5 1.2.9.5-.5.9-1.1 1.3-1.7.5-.6-.7-1.6-1.2-.9zm2 1c-.3.4-.7.8-.9 1.2-.4.8.5 1.5 1.2.9.4-.3.7-.8 1-1.2.5-.7-.7-1.6-1.3-.9zM38 217.2c-3.7 48.9-8.3 97.9-10.6 146.9 0 .9 1.4.9 1.5 0 4.8-48.8 7.3-98 10.7-146.9.1-1-1.5-1-1.6 0zm30.9 10.4c-.6 47.2-1.4 94.5-.9 141.7 0 1 1.5 1 1.5 0 1.1-47.2.8-94.5.8-141.7.1-.9-1.3-.9-1.4 0zm30.1-8.5c2.4 45.5 5 91 7.6 136.5.1 1.1 1.7 1.1 1.7 0-2.6-45.5-5.1-91-7.9-136.5 0-1-1.5-1-1.4 0z" style="fill:#171717"/></svg>