<svg xmlns="http://www.w3.org/2000/svg" version="1.0" viewBox="-0.4 -8.4 468 508.4" style="fill:#000" aria-label="Hand Drawn Full Body Jumping Happy Elder Man"><path d="M355.8 466.4c5.9.4 9.8 3.7 10.9 4.7 3.8 2.6 9.5 6 17 7.9 12.8 3.3 20-.1 27.1 4.9 3.2 2.3 7 6.7 8.7 16.1-26.6-.6-53.2-1.3-79.8-1.9 2.1-9.8 4.2-19.7 6.3-29.5 1.5-.8 5-2.5 9.8-2.2zM102.2 310.6l-17.1-24.9c-18.8 18.9-37.6 37.7-56.3 56.6 8 5.3 13.8 5.6 17.6 4.8 8.5-1.7 11-9.3 22.2-16.3 6.6-4.1 13-6 17.5-6.9 1.5-.1 6.6-.7 10.9-4.7 3.6-3.2 4.8-7 5.2-8.6z" style="fill:#171717"/><path d="M207.6 55.7C202.4 52 194.5 45 194 35.8c-1.1-21.2 38.7-44.2 56.1-32.7 8.3 5.5 9.9 17.6 10.1 25.2-17.5 9.1-35.1 18.3-52.6 27.4zm-8.5 162.4c-8.2 18.7-16.3 37.9-24.4 57.5-10.3 25.1-19.9 49.8-28.9 73.9-14.6-13-29.1-25.9-43.7-38.9-5.3 4.4-10.7 8.9-16 13.3 10.2 49.6 35.1 86.3 60.2 87.3 22.8.9 43.7-27.6 72.2-66.6 11.7-16 20.2-30.1 25.7-40 19.8 18.3 39.5 36.7 59.3 55 13.2 37.7 26.4 75.4 39.7 113.1 9.2-.1 18.5-.3 27.7-.4.9-21 .8-50.8-4.3-86-1.9-13.1-4.7-31.4-10.5-50.5-6.7-22.1-22.2-59.9-63.4-100.1-31-5.8-62.3-11.7-93.6-17.6z" style="fill:#edeced"/><path d="M261.1 79.5c.4 1.2.9 2.3 1.3 3.5m0 0c.7 1.9 1.5 3.9 2.2 5.8 1.1 2.2 2.3 4.4 3.5 6.6l-6.9 16.4c-5.4-6.7-10.8-13.3-16.1-20-1.4-2.5-2.8-5-4.3-7.5h.1c-7.9-1.6-15.9-8.2-22.2-18.7-1.4.4-3.2.6-5.1-.1-5.4-2-7.4-10.6-4.8-13.2.4-.4 1.3-1 3.2-.9-1.3-3.7-2.5-7.7-3.4-12 1.2.2 3.4.3 5.8-.6 4.1-1.4 6.1-4.7 6.7-5.6.4.7 2.3 4.2 5.2 4.5 3.6.3 8.1-4.1 8.7-11.4.9.3 3 .9 5.6.2 4.3-1.3 5.9-5.5 6.1-6 2.9 3.4 5.3 6.8 7.5 10.3 1.1-1.8 2.2-2.2 2.7-2.3 3.6-.7 9.6 5.7 8.3 11.3-.6 2.6-2.5 4.2-3.8 5 4.9 13.1 4.4 24.9-1.3 32.2.3.8.6 1.7 1 2.5M422 52.8l-9.8-18c5.5-19.3 9.1-28.8 10.9-28.5 1.3.2 1.6 5.4 1.1 15.5 34.4-2.7 41.2.7 41.9 3.7 1.5 6-19.9 17-44.1 27.3zM50.7 97.4l3.6-20.2C43 60.6 36.6 52.8 34.9 53.7c-1.1.6.2 5.6 3.9 15C5.4 77.1 0 82.5.2 85.5c.5 6.2 24.3 9.8 50.5 11.9z" style="fill:#e6ae7e"/><path d="M296.1 77.8c38.8-15.3 77.6-30.7 116.3-46.1l12 21.9c-40.4 25.9-80.9 51.7-121.3 77.6.4 10.8.5 22.4-.1 34.6-1.3 26.5-5.2 50-10 70.1-9 2.8-28.3 7.4-51.9 2.2-20.5-4.5-34.7-14.2-41.9-19.9 2.9-11.1 5.6-24.1 7.2-38.9 1.3-12.5 1.6-24 1.2-34.1L48.9 99l5.5-25.7 186.7 18.2c6.5 4.9 12.9 10 19.4 15.1 1.5-5.5 3.1-11.1 4.6-16.6 8.3-3.3 16.5-6.5 24.8-9.8m6.2-2.4c-2.1.8-4.1 1.6-6.2 2.5" style="fill:#ffd558"/><path d="M229.5 43.7c-2.4-.7-5-.5-7.1.8-1.8 1.2-4 3.6-3.7 5.9.2 1.7 2.4 3.3 3.9 1.6.9-1.1 1.2-2.5 2.4-3.4s2.6-1.2 4-1c2.3.2 2.6-3.3.5-3.9zm11.8-2.8c.5-1 1.2-1.9 2.3-2.4 1.2-.5 2.2-.2 3.4.1 2.6.7 4.2-3 1.8-4.4-4.4-2.6-10 .3-11 5.1-.4 2.1 2.6 3.7 3.5 1.6zM254.1 59c.9.7 1.3 2.1 1 3.2-.6 2.1-3.6 1.9-8.5 4.3-4.8 2.4-6.3 4.9-8.6 4.1-1-.4-2.1-1.3-2.3-2.5-.5-4.7 14.4-12.6 18.4-9.1z" style="fill:#edeced"/><path d="M260.5 106.6c1.5-5.5 3.1-11.1 4.6-16.6.1-.2 1-2.9 3.7-3.7 1.9-.6 3.6.1 4.4.5 1.4 5.2 2.7 12.2 2.6 20.3-.1 4.2-.5 8.1-1.1 11.4-1.4-.3-2.9-.7-4.6-1.5-5.8-2.9-8.6-8.2-9.6-10.4zm-7.2 19.2c1.5-1.5 4-4.4 5.7-8.8.5-1.4.9-2.7 1.1-3.9 10 41.6 10.4 83.9-.1 125.6-.3 1.2 1.6 1.8 1.9.5 10.8-43.2 10.7-88.3-1.3-131.3v-1.4c-5.2-4.9-10.4-9.9-15.5-14.8-1-.5-2.5-1-4.3-1.3-2.5-.4-4.6-.1-6 .2-.1 4.1 0 18.9 10.7 29.4 2.6 2.7 5.3 4.5 7.8 5.8zm-10.1-41.3c6.3.1 12.1-2.2 16.7-6.5.8-.8-.4-2-1.2-1.2-4.3 4.1-9.6 6.3-15.5 6.6-.7 0-.7 1.1 0 1.1zM259 54.3c.2-.6.1-1.2.1-1.8 0-1.1-1.7-1.1-1.7 0 0 .6-.1 1.2.1 1.8.3.7 1.3.7 1.5 0zm-2.6.5c.1-.5.1-.9.1-1.4 0-1-1.4-.9-1.5 0-.1.5-.1.7 0 1.2.1.7 1.2 1 1.4.2zM38.1 82c-1 .7-2.2 1.3-2.8 2.3-.4.6.3 1.4.9 1.2 1.2-.4 2-1.4 3-2.2.7-.6-.3-1.9-1.1-1.3zm-16.9-4.8c-.2.8-.2 1.6-.3 2.4-5.1-.2-10.3-.2-15.4-.2-1.3 0-1.3 2 0 2 5.1 0 10.2-.1 15.2-.3-.1.7-.2 1.4-.3 2-6.5.1-13 .3-19.5.4-1.3 0-1.3 2 0 2 6.4-.3 12.9-.5 19.3-.9-.1.7-.1 1.5-.2 2.2-5.4.1-10.7 0-16-.3-1.2-.1-1.2 1.8 0 1.9 5.3.6 10.7.5 16-.1 0 .7-.1 1.4-.2 2.1 0 1 1.7 1.3 1.8.2.7-4.4.9-9 1.2-13.5.1-1-1.5-.9-1.6.1zm236-44.6c1.5-2 3.5 3.1 3.9 3.9.5.9 2 .3 1.7-.7-.4-1.7-1.5-3.8-3.1-4.7-1.3-.7-3-.5-3.8.9-.5.7.7 1.3 1.3.6zm87.5 301.1c-1.3.5-2.7 1.1-4 1.7-.9.4-.3 1.9.7 1.6 1.3-.4 2.6-1 3.8-1.5 1-.5.6-2.2-.5-1.8zm-91-269.4c-.5-1.1-2.3-.7-1.9.5 2.6 7-6 11.3-10.4 5.6-.6-.8-1.9.2-1.3 1 5 8 17.2 1.6 13.6-7.1zm-13.3-4.7c-.4.7.4 1.5 1.1 1.1 1.1-.5 1.9-1.6 2.6-2.5.4-.2.7-.7.3-1.3-1.7-2.8-3.6-5.5-5.4-8.2-.7-1-2.3-.1-1.7 1 1.6 2.6 3.3 5.1 4.9 7.6-.5.7-1.3 1.4-1.8 2.3zM39.2 76.3c-3.9 2.6-8.1 4.2-12.3 6.2-.9.4-.3 1.9.7 1.6 4.5-1.1 8.7-3.8 12.3-6.5.8-.6.1-1.9-.7-1.3zm212.9-2.6c-.4.7-.9 1.4-1.1 2.2-.2.8.8 1.4 1.4.8.6-.6.9-1.4 1.3-2.1.6-1-1-1.9-1.6-.9zm81.1 262c4.3-2.4 8.6-4.4 13.4-5.6 1.1-.3.7-2-.5-1.7-4.9 1.1-9.7 2.9-13.9 5.8-1 .6-.1 2.1 1 1.5zm-21 18.7c0-.2-.1-.4-.3-.5-21.1-19-42.2-38-63.3-56.9 7.9-19.1 16.7-37.6 26.1-56.1.5-1-1-1.9-1.6-.9-10.1 18.1-18.7 37-26.2 56.3-.4.2-.6.6-.4 1-.9 2.2-1.7 4.5-2.6 6.7-.4 1 1.2 1.4 1.6.4.8-1.9 1.6-3.8 2.4-5.8 20.8 18.8 41.6 37.6 62.5 56.4l38.4 117.9c.4 1.2 2.3.7 1.9-.5-12.9-39.3-25.7-78.6-38.5-118zm-162.6 41.5c-.3 1.5-.4 3-.5 4.4-.1 1.1 1.7 1.1 1.7 0 .1-1.4.3-2.8.2-4.2.1-.8-1.2-1.1-1.4-.2zM434.1 33.3c-1.3.1-2.8-.1-4 .5-.6.3-.4 1.2.2 1.4 1.2.4 2.6 0 3.8-.1 1.1-.2 1.1-1.9 0-1.8zm31.2-8.4c-6.3 2.1-12.8 3.5-19 5.6-.3-1.1-.7-2.2-1.1-3.3 5.4-1.1 10.7-2.4 16-3.8.9-.2.5-1.6-.4-1.4-5.5 1-11 2.1-16.4 3.5-.2-.5-.5-1-.8-1.5-.5-1-1.9-.1-1.5.9 2 4.2 2.7 8.3 3.1 12.9.1 1.2 1.8 1.2 1.8 0v-1.6h.3c5-1.3 10-2.7 15-4.3.9-.3.5-1.5-.4-1.3-5 1.1-10 2.4-15 3.7-.1-.7-.2-1.3-.3-2 6.5-1 13-3.5 19-6 .9-.3.6-1.7-.3-1.4zm-26.7 4.6c-5.1.5-10 .1-15.1-.6-1-.1-1.2 1.5-.2 1.8 5 1.4 10.4 1.1 15.5.2.7-.1.6-1.5-.2-1.4zM227.2 50.8c-2 1-2.7 3.3-1.7 5.2.4.8 1.6.1 1.2-.7-.6-1.5.3-3.2 2-3.1 1.3.1 2 1.3 3.1 1.9.8.4 1.6-.4 1.2-1.2-1-1.8-3.8-3-5.8-2.1zm7.3 10.1c-.9 1.2-2 2.1-3.2 2.7-1 .5-2.1.7-3.2.7-.6 0-1.3-.1-1.9-.2-3.1-.7-5.7-3.3-6.4-6.4 0-.1 0-.2-.1-.3l-6.8-2.8c-.8.1-1.1.4-1.2.7-.4.7.1 2 1.3 4.6.5 1.1-.9 1.9-1.6.9-1-1.3-2-3.4-1.8-5.1.1-.9.7-1.6 1.4-1.9l-.2-.1c-.5-.2-.7-.8-.5-1.3s.8-.8 1.3-.5l8 3.3c.2-2.3 1.3-4.6 3.1-6.1 2.4-1.9 5.8-2.5 8.9-1.4 1.1.4 2 1 2.8 1.8.4-.9 1.1-1.8 2.2-2.7 1.3-.9 2.6-1.3 3.6-1.4 0-2.6 1.1-5.2 3.1-6.9 2.3-1.9 5.8-2.5 8.8-1.4l2.2-8.2c.1-.5.7-.8 1.2-.7.5.1.8.7.7 1.2l-2.3 8.6c1.7 1.1 2.9 2.8 3.2 4.9.4 2.5-.3 5.2-2 7.5-.9 1.2-2 2.1-3.2 2.7-1 .5-2.1.7-3.2.7-.6 0-1.3-.1-1.9-.2-3-.7-5.5-3.2-6.3-6.2-.7.1-1.7.3-2.6 1-1.3 1-1.8 2.3-2 2.9.4.7.6 1.4.8 2.2.3 2.4-.4 5.1-2.2 7.4zm7.7-14.2c.6 2.4 2.5 4.4 4.9 5 1.3.3 2.7.2 3.8-.3.9-.4 1.7-1.1 2.5-2.1 1.4-1.8 2-4 1.6-5.9-.3-2-1.7-3.5-3.7-4.2-2.4-.9-5.1-.5-6.9 1-1.8 1.4-2.7 4.1-2.2 6.5zm-7.6 7.1c-.3-2-1.7-3.5-3.7-4.2-2.4-.9-5.1-.5-6.9 1-1.9 1.6-2.8 4.2-2.2 6.6.6 2.4 2.5 4.4 4.9 5 1.3.3 2.7.2 3.8-.3.9-.4 1.7-1.1 2.5-2.1 1.3-1.9 1.9-4.1 1.6-6zm-79.3 335.7c-1 5.2-1.2 10.6-1.9 15.9-.1 1 1.4.9 1.5 0 .7-5.2 1.7-10.4 2-15.7.1-.9-1.5-1.1-1.6-.2zM220 232c-6.9 13.3-17.4 23.9-30.5 31 5.3-12.8 10.6-25.6 15.9-38.5.4-1.1-1.3-1.5-1.7-.5l-16.8 40.5c-.1.1-.2.3-.2.5-13.4 32.4-26.8 64.7-40.2 97.1-16-16.3-32-32.6-47.9-48.9-.9-.9-2.3.5-1.4 1.4 16.2 16.6 32.5 33.2 48.7 49.8l.3.3c.4.4 1 .2 1.3-.1.1-.1.1-.2.2-.2 0 0 0-.1.1-.1 13.6-32.7 27.1-65.5 40.7-98.2 14.5-7.2 26-18.5 33.1-33.1.3-1.1-1.1-1.9-1.6-1zm7-164.2c-.1.7-.2 1.3-.2 2 0 .9 1.3 1.1 1.5.2.2-.6.2-1.3.3-2 0-.9-1.5-1.1-1.6-.2zm2.5-.4c0 .7 0 1.3.2 1.9.2.7 1.3.8 1.5 0 .1-.6.1-1.2 0-1.9-.1-1.1-1.8-1.1-1.7 0zm17-21.8c-.3-1.4.2-3 1.8-3.2 1.4-.1 2 1.2 2.7 2.2s2.2.1 1.7-1c-.9-2-2.8-3.8-5.2-3-2.2.8-3.1 3.2-2.5 5.4.2 1.1 1.7.6 1.5-.4zm22.2 78.3c1.4.3 2 3.1.6 3.8-.5.3-1.3.1-1.7-.4-.8-1-.9-3.9 1.1-3.4zm2.9 27.9c.3.5 1 .9 1.6.7 1.4-.5 1.4-3.3 0-3.9-1.9-.7-2.3 2.1-1.6 3.2zm1.5 31.8c.3.5 1 .9 1.6.7 1.4-.5 1.4-3.3 0-3.9-1.9-.8-2.3 2-1.6 3.2zm-3.3 34.2c.2.6.7 1.1 1.4 1 1.5-.1 2.1-2.9.9-3.8-1.6-1.1-2.7 1.5-2.3 2.8z" style="fill:#171717"/><path d="M205 118.2c-.1-1.1 1.5-1 1.7 0 .9 7.2 2.2 14.5 2.7 21.7.1 1-1.6 1.2-1.8.2-1.2-7.2-1.8-14.6-2.6-21.9zm95.5-13.6c1.1 6.6 2.2 13.3 3.4 19.9.2 1.2 2.1.7 1.9-.5-1.2-6.6-2.4-13.2-3.7-19.8-.2-1.1-1.8-.6-1.6.4zm-240-29.9c-2.5 8.2-4.6 16.5-6.7 24.8-.3 1.2 1.6 1.8 1.9.5 2.2-8.3 4.5-16.5 6.4-24.8.2-1.1-1.3-1.5-1.6-.5zm5.5-.1c-2.2 8.8-4.3 17.7-6.4 26.5-.3 1.2 1.6 1.8 1.9.5 2.1-8.9 4.3-17.7 6.3-26.6.2-1-1.6-1.5-1.8-.4zm342.8-41c4 7.2 7.5 14.4 10.1 22.2.4 1.2 2.3.7 1.9-.5-2.6-7.9-6-15.5-10.6-22.5-.5-.9-1.9-.1-1.4.8zm-4 1.5c2.8 8.1 6.5 16 9.9 23.9.5 1.2 2.2.2 1.7-1-3.3-7.8-6.4-15.9-10.3-23.5-.4-.7-1.6-.2-1.3.6zM87.6 290.8c-18.5 17-36.5 34.5-54.5 51.9-.8.8.4 1.9 1.2 1.2 18.1-17.3 36.4-34.6 54.1-52.3.5-.5-.3-1.3-.8-.8zm330.5 204.7c-25-2.3-51-5.5-76.1-4.1-1.3.1-1.3 2.1 0 2 25.3-1.5 50.8 2.2 76.1 3.3.8.1.8-1.1 0-1.2z" style="fill:#edeced"/></svg>