<svg xmlns="http://www.w3.org/2000/svg" version="1.0" viewBox="-1.9 -0.2 193.2 500.2" style="fill:#000" aria-label="Hand Drawn Full Body Confused Elder Man"><path d="M178.3 237.4c3.2-.1 6.5-.1 9.7-.2 1 4.8 1.8 12 .1 20.2-.4 1.9-2.3 11-4.7 11-1.5 0-3.6-3.7-6-18.7-.7 4.4-1.5 6.5-2.3 6.6-1.5.1-3.2-6.2-5.1-18.8 2.1 0 4.2-.1 6.3-.1m2 0h-1.9" style="fill:#e6ae7e"/><path d="M72.3 474.2c2.5 4.6 6.7 10.5 12.9 11.3 5.5.7 9.2-2.8 12.6-1.2 2.3 1.1 4.4 4.5 3.2 15.3-21.3.1-42.6.2-63.8.4 1.1-8.3 2.3-16.6 3.4-24.8 10.6-.3 21.1-.6 31.7-1zm43.3 1c-1.1 8.3-2.3 16.6-3.4 24.8 21.3-.1 42.6-.2 63.8-.4 1.3-10.7-.9-14.2-3.2-15.3-3.4-1.6-7.1 2-12.6 1.2-6.2-.8-10.4-6.7-12.9-11.3-10.6.4-21.2.7-31.7 1z" style="fill:#171717"/><path d="M107.7 235.6c2.2 0 4.4.1 6.6.1m0 0c10.8.2 21.6.4 32.3.6 8.6 24.7 16.5 55.5 19.9 91.2 5.8 60.7-4 111.5-14.1 146.2-3.4 1.7-10.3 4.6-19.7 4.8-9.7.2-17.1-2.6-20.5-4.2 2.2-35.2 4.5-70.4 6.7-105.6-4.2-19.7-8.3-39.4-12.5-59.1 1.1 20.7.6 45.6-3.7 73.5-5.7 37-16.4 67.7-26.7 91.1-4.3 1.5-10.8 3.3-18.9 3.6-9.4.4-16.9-1.4-21.5-2.8 4.8-42.3 9.6-84.6 14.4-127-5.4-24-9.1-52.8-7.6-85.1.4-9.9 1.3-19.4 2.6-28.4 20.9.4 41.8.7 62.7 1.1" style="fill:#edeced"/><path d="M157.9 189.8c-2.5-12.2-4.9-24.4-7.4-36.7-.4 27.6-.9 55.1-1.3 82.7-9.2 2.4-19.7 4.4-31.3 5.5-31.3 2.9-57.6-2.3-75.9-7.7 3.4-37.6 6.8-75.2 10.1-112.7-28.9-3-50.1-20.2-52-38.6-2-19.9 19.2-36.8 27.6-43.4 12.1-9.6 24.3-14 32-16.1L74 33.6c-2.6 6.2-5.9 13-10.2 20.3-5.6 9.4-11.6 17.1-16.9 23.3 7.4 0 14.9 0 22.3.1s14.9.1 22.3.2c4.7 9.3 13.9 13.9 20.5 12 4-1.1 8.9-5.1 11.2-10.1.1-.3.2-.5.3-.7 5.4-.5 14.5-.5 23.9 3.9 13.8 6.4 20.4 18.2 23.9 24.7 12.1 22 20 69.3 18.5 130.5-7.2.9-14.5 1.8-21.7 2.7-3-14.8-6-29.5-8.9-44.3m0 0c-.4-2.1-.9-4.3-1.3-6.4" style="fill:#5b6eef"/><path d="M136.5 26.6c.8 2.8 1.5 5.5 2 8.2 4.3-3.4 6.3-2.9 7-2.6 3.8 1.7 4.3 13.2-.9 16.1-.6.3-2.1 1-4.6.5 0 13.7-4.4 24.6-12.4 29.8-1.5 1-3 1.7-4.5 2.2-3.3 11-14.4 16-22.2 12.9-5.7-2.3-9.5-8.8-9.4-16.2.6-.6 1.3-1.4 1.9-2.6.6-1.1.9-2.1 1.1-2.9-2.9-3.1-5.4-6.8-7.4-10.9-1.7.7-2.9.6-3.5.5-5.9-1.1-8.8-12.4-5.9-15 .7-.7 2.1-.9 4.6-.2-.6-3.7-.9-7.4-.6-11C82 30.5 83 16 94 9.4c10.7-6.4 27.2-3.1 39.7 9.4.7 1.8 1.4 3.6 2 5.3m0 0c.3.8.5 1.7.8 2.5" style="fill:#e6ae7e"/><path d="M128.1 13.9c3-2.4 10.1.8 13.5 5.4 3.6 4.9 3.1 11.8 1.4 13.6l-.3.3c-.8.7-2.6 2.2-4.7 1.9-.1 0-.3-.1-.5-.1-1-.3-5-2.1-7.8-6.8-2.7-4.5-4.6-11.9-1.6-14.3zm-35.5 9.3c-.7-1.5-2.8-5.9-6-6.1-4.6-.3-8.2 8.3-9.8 12.2-2.1 5.1-4.7 11.3-1.7 14.9 2.5 2.9 7.1 2.3 7.6 2.2 7.6-1 10.4-11.1 10.7-12 .4-1.5 1.5-6.3-.8-11.2z" style="fill:#171717"/><path d="M78.6 23.3c-.8 1.7-1.5 3.4-2.3 5.1-.8 1.7-1.5 3.5-2.3 5.2-.9-.3-2.1-.8-3.4-1.4-.5-.2-2.4-1.1-4.2-2.4-3.4-2.4-5.5-5.1-6.7-6.9C61.3 9.4 69.8.2 78.1 0c7.9-.2 17 7.7 15.7 12.6-1.3 4.8-12 5.8-13 5.8-.4.9-.9 1.9-1.3 2.8m-.9 2.1c.3-.7.6-1.4.9-2" style="fill:#e6ae7e"/><path d="M105.7 43.6c.3 1.3-.3 2.5-1.2 2.7s-1.9-.7-2.2-2c-.3-1.3.3-2.5 1.2-2.7.9-.2 1.9.7 2.2 2zm16.9-9.5c-.9.2-1.5 1.4-1.2 2.7s1.3 2.2 2.2 2c.9-.2 1.5-1.4 1.2-2.7s-1.3-2.2-2.2-2zM107.3 34.8c1.5.3 1.2 2.8-.4 2.7-1.9-.1-3.8-.1-5.7.3-1.8.3-3.4 1.2-5.1 1.5-1.3.2-2.8-1.5-1.5-2.6 3.4-2.6 8.7-2.7 12.7-1.9zm10.1-3.9c2.6-2.3 5.2-2.1 8.5-1.9 1.6.1 2.3-2.3.8-3-3.8-1.8-8.5-.1-11.3 2.9-1.3 1.3.6 3.2 2 2zm1.3 31c7.2-1.8 10-1.5 11.2-3.8.6-1.3.5-3.2-.4-4.5-3.9-5.3-23.7-.1-24.4 6.2-.2 1.5.7 3.1 1.8 3.9 2.1 1.6 4.5 0 11.8-1.8z" style="fill:#171717"/><path d="M81.1 53.6c.4 1.1 1 2 1.5 3 .4.8-.6 1.7-1.2 1-1.4-1.6-2.3-4.1-2.3-6.3 0-1.5 1.2-3 2.8-2.2.7.4.1 1.4-.6 1.1-1.2-.5-.3 3.2-.2 3.4zM142.3 36c.7-1.5 1.6 1.1 1.7 1.3.2.7.3 1.4.4 2.1.1 1.2 0 2.3.1 3.5 0 .8 1.4 1.1 1.6.2.5-2.2.3-6-1.2-7.9-1.1-1.4-3-1.3-3.7.4-.3.6.8 1 1.1.4zm-20.2 45.7c.7-.3.2-1.5-.5-1.3-10.3 2.7-19.4.4-25.8-8.4-.5-.6-1.5-.1-1.1.6 5.5 9.3 17.5 13.6 27.4 9.1zm-4.4-33.1c-1.8.5-3.7 1.5-5.4 2.2-.7.3-.2 1.5.5 1.3 1.9-.7 4.1-1.2 5.9-2.2.2-.1.3-.3.3-.5.1-.1.1-.3.1-.5-2-5.7-4.2-11.4-6.7-16.9-.4-.8-1.8-.2-1.5.6 2.1 5.4 4.3 10.7 6.8 16zm-3.4 13c2.6-2.2 7.2-3.5 10.6-1.8 1.6.8 2.1 2 2.1 2.8.2 2.1-1.5 4.4-3.1 5.7-1.5 1.2-3 1.9-4.4 2.3-.6.1-1.2.2-1.8.2-1.2 0-2.4-.3-3.4-.9-1.7-1.1-2.6-3.1-2.3-4.9.3-1.2 1.1-2.3 2.3-3.4zm-.5 3.8c-.2 1.1.4 2.4 1.5 3.1 1 .7 2.4.8 3.8.5 1.2-.3 2.4-.9 3.8-2 1.3-1 2.6-2.8 2.4-4.1-.1-.6-.4-1.1-1.2-1.5-.8-.4-1.7-.6-2.7-.6-2.2 0-4.5.9-6.1 2.2-.8.8-1.4 1.6-1.5 2.4zm11.9 3c-.6.9-1.5 1.8-1.6 2.8-.1.5.4 1.1 1 .8 1-.6 1.5-1.8 2.1-2.7.5-1-.9-1.8-1.5-.9zM96.4 58.3c.3-.8.3-1.7.4-2.6.1-.9-1.4-1.1-1.5-.2-.1.8-.4 1.7-.3 2.6 0 .9 1.1 1 1.4.2zm3.2-.6c.4-.6.5-1.4.7-2.2.2-1.1-1.4-1.5-1.6-.5-.2.7-.5 1.5-.4 2.3 0 .7.8 1 1.3.4zm29.6-11c.5-.9.7-2 1.1-3 .3-1-1.2-1.4-1.6-.4-.3.9-.8 1.9-.9 2.9-.2.7.9 1.4 1.4.5zm2.8-.1c.5-.8.6-1.8.9-2.7.3-1-1.2-1.4-1.5-.4-.3.9-.7 1.8-.7 2.7 0 .7.9 1 1.3.4zM93 10.4c.1.2.2.4.2.6-5.2-1-10.4-2.1-15.7-2.7-.2 0-.4.1-.5.2-.1 0-.1.1-.2.2-1.4 1.8-3 3.5-4.1 5.5-.5.8.6 1.7 1.3 1 1.5-1.6 2.6-3.6 3.9-5.4 5 1.3 10.3 2.2 15.4 3.1-.4 1-1.3 1.8-2.4 2.4-3.6-.8-7.1-1.8-10.7-2.6-.4-.1-.7.1-.9.4-.3-.1-.3 0-.4.1-1 1.3-1.9 2.7-2.8 4.1-.6.9.9 1.8 1.5.9.9-1.3 1.7-2.5 2.5-3.9 3 .6 5.9 1.2 8.9 1.8-.3.1-.7.3-1 .4-.9.4-.2 1.8.6 1.5 3.1-.8 6.2-3 6.2-6.1 0-.7-.2-1.4-.5-2.2-.4-.8-1.6-.1-1.3.7zm-20.6-1C74 7.7 75.7 6 77.2 4.3 82.3 6 87.5 7.5 92.7 8.8c.7.2 1-.8.3-1.1C87.9 5.8 82.7 4 77.5 2.6c-.4-.1-.7 0-.9.3-.1 0-.2.1-.3.2-1.7 1.7-3.4 3.4-5.1 5.2-.8.7.4 1.9 1.2 1.1zm-5.7 6.9c.5-.6.8-1.2 1.2-1.9.5-1-1-1.9-1.5-.9-.4.7-.8 1.3-1 2-.2.8.7 1.3 1.3.8zm3.5 3c.4-.4.6-.7.8-1.2.5-1-1-1.9-1.5-.9-.3.6-.5 1-.6 1.6 0 .6.9.9 1.3.5zm3.9 2.7c.2-.6.3-1.1.3-1.7 0-.2-.3-.2-.4-.2-.5.3-.9.8-1.2 1.3-.7.8.9 1.7 1.3.6zm77.1 128.5c.4-11.3-.6-22.5-2.9-33.6-.2-.9-1.6-.5-1.4.4 2 11 2.8 22 2.6 33.2 0 1 1.7 1 1.7 0zm-43.4-51.1C94.9 100.6 89 88.6 88.3 77.7c-.1-1-1.6-1-1.6 0 .5 10.5 5.7 22.2 17.4 23.6 13.2 1.5 21.4-10.6 25.2-21.4.4-1.1-1.3-1.5-1.7-.5-3.2 9.2-9 19-19.8 20zM45.6 77.8C40.4 81.6 35 85.3 30 89.3c-.7.6.2 1.8 1 1.3C36.3 87 41.3 82.9 46.4 79c.7-.5 0-1.7-.8-1.2zm9 41.1c1-5.3 1.9-10.6 2.8-15.9.2-1-1.4-1.5-1.6-.4-1 5.3-2 10.6-2.8 15.9-.2 1 1.3 1.5 1.6.4zm17.1-80.7c.8.2 1.1-.9.3-1.2-6.6-2.5-11.9-6.6-15.2-12.9-.5-1-2-.1-1.5.9 3.3 6.5 9.2 11.7 16.4 13.2zm117.6 193.1c-7.5-.2-14.8.5-22.1 2.2-1.1.3-.6 1.9.5 1.7 7.1-1.7 14.4-2.5 21.7-2.6.7-.1.7-1.3-.1-1.3zm-146.4-3.5c34.8 6.5 71.2 13.2 106 3.2.9-.2.5-1.6-.4-1.3-35.4 8.5-70 3.1-105.2-3.5-1-.2-1.4 1.4-.4 1.6zm115.2-56c3.2-1 6.2-2.6 9.3-3.9.8-.3.2-1.8-.6-1.4-3.1 1.3-6.4 2.3-9.3 3.9-.8.4-.2 1.7.6 1.4zM78.5 185c13.8-15.6 25.9-32.6 36.2-50.7.5-.8-.8-1.5-1.3-.7-10.6 17.8-22.6 34.5-36.2 50.2-.6.8.6 2 1.3 1.2zm28.9-22.8c-1.2 2.7-2.8 5.5-3.6 8.4-.3.9 1 1.3 1.4.6 1.5-2.5 2.5-5.5 3.7-8.1.4-1-1-1.9-1.5-.9zm2.7 126.3c0-.1-.1-.2-.1-.3.3-.2.7-.3 1-.5 1-.5.1-2-.9-1.5-1.6.8-3.2 1.4-4.9 1.7 4.8-15.2 5.9-30.6 3.2-46.4-.2-1.1-1.9-.6-1.7.5 2.7 15.7 1.6 31-3 46.1-1.9.2-3.9.1-5.9-.4-.9-.2-1.3 1.2-.4 1.4 2.1.6 4.2.8 6.3.6.8 6.2 1.7 12.3 2.5 18.5.1.8 1.5.6 1.4-.2-.8-6.2-1.5-12.3-2.2-18.5 1-.2 2.1-.4 3.1-.8v.1c6 27 12.1 54 18.1 81-2.9 35.6-5.9 71.2-9.1 106.7-.1 1 1.5 1 1.6 0 3.3-35.6 6.4-71.2 9.3-106.8 0-.2 0-.3-.1-.4-6.1-26.8-12.1-53.8-18.2-80.8zm-12.3 69.8c-7.2-.8-14.8-1-22 .5-.8.2-.7 1.6.2 1.5 7.3-.7 14.4-1.3 21.8-.6.9.1.9-1.3 0-1.4zm-4 5.2c-1.4-.1-3-.4-4.4-.1-.7.1-.6 1.2 0 1.4 1.4.4 3 .3 4.4.3 1 0 1-1.6 0-1.6zm69.3 4.8c-7.1-1.3-15.1-2.6-22 .2-.8.3-.5 1.6.4 1.4 7.4-1.4 14-1.2 21.5-.4.7.1.8-1.1.1-1.2zm-5.3 4.9c-1.4.1-2.8 0-4.2.3-.9.2-.6 1.4.2 1.5 1.3.1 2.7-.1 4-.2 1.1 0 1.1-1.6 0-1.6zM70.2 239.8c-3.4 12.1-9.4 22.7-17.8 31.9 0-11.8.5-23.5 1.4-35.3.1-1.1-1.6-1.1-1.7 0-3.1 38-1.4 75.9 5.1 113.5-5.6 42.2-11.4 84.3-16.8 126.5-.1.8 1.3 1 1.5.2 5.9-42.2 11.4-84.5 17-126.7 0-.2 0-.3-.1-.4-4.3-24.9-6.4-50-6.4-75.1 9.2-9.7 15.9-21.1 19.3-34.1.2-1-1.3-1.4-1.5-.5zm84.9 29c.8.7 2.1-.5 1.2-1.2-9-7.6-14.8-17.6-16.5-29.3-.1-.8-1.5-.6-1.4.2 1.3 12.2 7.4 22.5 16.7 30.3zm26.6-14.2c.1 3.8.1 7.7.2 11.5 0 1.1 1.7 1.1 1.7 0-.1-3.8-.4-7.7-.6-11.5 0-.9-1.3-.9-1.3 0zm3.5-.3c-.1 2.7-.2 5.5-.2 8.3 0 1.1 1.7 1.1 1.7 0 0-2.8-.1-5.5-.2-8.3-.1-.8-1.3-.8-1.3 0z" style="fill:#171717"/></svg>